Coordinates
version=1
nRows=17
nColumns=33
inDegrees=yes

Units are S.I. units (second, meters, Newtons, ...)
Angles are in degrees.

endheader
time	ground_thorax_rot_x	ground_thorax_rot_y	ground_thorax_rot_z	ground_thorax_tx	ground_thorax_ty	ground_thorax_tz	clav_prot_r	clav_elev_r	scapula_abduction_r	scapula_elevation_r	scapula_upward_rot_r	scapula_winging_r	shoulder_elv_r	plane_of_elev_r	axial_rot_r	elbow_flexion_r	pro_sup_r	wrist_flex_r	wrist_dev_r	clav_prot_l	clav_elev_l	scapula_abduction_l	scapula_elevation_l	scapula_upward_rot_l	scapula_winging_l	shoulder_elv_l	plane_of_elev_l	axial_rot_l	elbow_flexion_l	pro_sup_l	wrist_flex_l	wrist_dev_l
      6.90000000	     39.92245472	      2.64777223	     10.47045452	   -214.30791480	    873.87428246	     -7.48809136	      2.62721082	     43.47861093	     45.00000000	     45.00000000	     11.77200231	   2045.28094273	  -2455.49951898	     17.72523561	   -179.99999979	   1086.42051478	    -59.12427025	     20.79214259	      9.60386145	     12.16141526	    -45.00000000	    -36.41331467	     45.00000000	    -45.00000000	  -1341.65334706	  -1174.88067975	    144.23830032	    138.46507038	     12.50186034	    405.26765345	      6.76065719	    -22.95393417
      6.91000000	     39.89116641	      2.59054582	     10.32247367	   -212.86438347	    875.64970057	     -7.52409822	      2.42319418	     43.37430526	     45.00000000	     45.00000000	     12.55661368	   2045.25417019	  -2455.28615629	     17.84133155	   -179.99999979	   1086.40219394	    -58.19352385	     20.96966817	      9.52590665	     12.29015990	    -45.00000000	    -36.70029551	     45.00000000	    -45.00000000	  -1341.63089798	  -1174.67180274	    143.95918282	    139.21115082	     12.61048505	    405.86556635	      6.63801946	    -22.98153333
      6.92000000	     39.79937664	      2.52675149	     10.09541319	   -211.33848306	    877.51588431	     -7.54920804	      2.08540568	     43.25719329	     45.00000000	     45.00000000	     13.65991182	   2045.18301596	  -2454.99045427	     17.86253712	   -179.99999979	   1086.44993947	    -57.27961678	     21.10789065	      9.49355700	     12.42581947	    -45.00000000	    -37.04427548	     45.00000000	    -45.00000000	  -1341.65764565	  -1174.35828128	    143.64092869	    140.13213829	     12.66650695	    406.44712462	      6.51260885	    -22.99198383
      6.93000000	     39.78357018	      2.64846756	     10.13957243	   -209.72073691	    879.46350037	     -7.56086158	      2.39748619	     43.29534926	     45.00000000	     45.00000000	     12.78821615	   2045.27058936	  -2455.37823563	     18.35075296	   -179.99999979	   1086.26662536	    -56.98825796	     21.40637254	      9.32286436	     12.56978699	    -45.00000000	    -37.39504865	     45.00000000	    -45.00000000	  -1341.64079539	  -1174.17015887	    143.47604159	    140.49634594	     12.76260177	    406.85225632	      6.50004681	    -23.09930180
      6.94000000	     39.66146742	      2.33702641	      9.62337783	   -207.99915511	    881.48428347	     -7.55934132	      1.30435501	     43.01374141	     45.00000000	     45.00000000	     15.79405217	   2045.10452432	  -2454.46984155	     18.00778794	   -179.99999979	   1086.51985553	    -56.26420303	     21.47511407	      9.46499248	     12.69652816	    -45.00000000	    -37.71768944	     45.00000000	    -45.00000000	  -1341.70153676	  -1173.75155885	    142.96308951	    142.18701812	     12.77518706	    407.40529629	      6.33676163	    -23.06665634
      6.95000000	     39.66116729	      2.34826435	      9.48339901	   -206.17026404	    883.55905472	     -7.54787198	      1.25698079	     42.89526377	     45.00000000	     45.00000000	     16.52818701	   2045.10767303	  -2454.23511502	     18.17486739	   -179.99999979	   1086.41965780	    -55.63060033	     21.53462328	      9.44814170	     12.83183095	    -45.00000000	    -38.06751705	     45.00000000	    -45.00000000	  -1341.69851219	  -1173.48664685	    142.65416750	    143.12121390	     12.93234321	    407.84938699	      6.18482163	    -23.07265882
      6.96000000	     39.63878954	      2.27490078	      9.31436429	   -204.22618459	    885.67242749	     -7.53182986	      0.92941103	     42.75831365	     45.00000000	     45.00000000	     17.57221992	   2045.21567562	  -2453.92044737	     18.24383541	   -179.99999979	   1086.42806409	    -55.07932367	     21.67414434	      9.44086617	     12.99201466	    -45.00000000	    -38.33842041	     45.00000000	    -45.00000000	  -1341.70879417	  -1173.20745461	    142.27902398	    144.39785211	     12.93993770	    408.23809581	      6.08121762	    -23.07212062
      6.97000000	     39.60782783	      2.55613589	      9.64068457	   -202.16546011	    887.80053735	     -7.51690522	      1.37470905	     42.94266067	     45.00000000	     45.00000000	     15.56853058	   2045.51320710	  -2454.69487146	     18.88933811	   -179.99999979	   1086.13971850	    -55.24117339	     22.24638124	      9.09081242	     12.94660748	    -45.00000000	    -38.49408337	     45.00000000	    -45.00000000	  -1341.57945396	  -1172.84480735	    142.08883398	    144.36867130	     13.02971341	    408.44645817	      6.07793896	    -23.15908579
      6.98000000	     39.54532432	      2.03286990	      8.66161870	   -199.98784276	    889.91751362	     -7.50766658	      0.45603949	     42.42302344	     45.00000000	     45.00000000	     20.10207225	   2045.10215597	  -2453.35479503	     18.45104436	   -179.99999979	   1086.46694081	    -55.27430774	     21.75031699	      9.70538270	     13.11897034	    -45.00000000	    -39.30488966	     45.00000000	    -43.53042643	  -1341.63630859	  -1172.65515261	    141.87629004	    146.08286108	     13.04467929	    408.66802044	      5.89552511	    -23.08207776
      6.99000000	     39.51484803	      1.73629648	      8.10628200	   -197.69345924	    891.99189625	     -7.50536423	      0.06221025	     42.28757971	     45.00000000	     45.00000000	     21.70564724	   2045.01054174	  -2453.11064264	     18.54202987	   -179.99999979	   1086.47721141	    -54.86893700	     21.95780709	      9.67234243	     13.24174377	    -45.00000000	    -39.95327429	     45.00000000	    -41.91786190	  -1341.53495686	  -1172.52692657	    141.79112760	    146.86928600	     13.05600253	    408.81898001	      6.01896589	    -23.27308260
      7.00000000	     39.48470500	      1.50117050	      7.63162764	   -195.28014615	    893.99332136	     -7.50829374	     -0.40412863	     42.11324789	     45.00000000	     45.00000000	     23.18776494	   2044.88148876	  -2452.89273672	     18.69163364	   -179.99999979	   1086.42571485	    -54.49912829	     22.11197066	      9.65763912	     13.37445130	    -45.00000000	    -40.56390377	     45.00000000	    -40.47280485	  -1341.42191331	  -1172.32262824	    141.65986158	    147.29207384	     13.04426413	    408.78332717	      6.03957303	    -23.33325905
      7.01000000	     39.44869559	      1.29391199	      7.16426974	   -192.74736424	    895.88891197	     -7.51196458	     -0.78990979	     41.91009374	     45.00000000	     45.00000000	     24.87978671	   2044.76879806	  -2452.57495727	     18.76124375	   -179.99999979	   1086.41031614	    -54.40201344	     22.17381853	      9.73685007	     13.39613552	    -45.00000000	    -41.20776999	     45.00000000	    -38.95663743	  -1341.33884556	  -1172.11846758	    141.58857432	    147.73453421	     13.03791858	    408.54887854	      6.03565087	    -23.35634648
      7.02000000	     39.39628993	      1.15150844	      6.81861925	   -190.09275571	    897.64714271	     -7.51033821	     -1.01039542	     41.70911141	     45.00000000	     45.00000000	     26.29409297	   2044.81347092	  -2452.31328435	     18.76599677	   -179.99999979	   1086.41756875	    -54.60443816	     22.16215014	      9.88859455	     13.41001992	    -45.00000000	    -41.72744003	     45.00000000	    -37.46698085	  -1341.24759970	  -1171.91147331	    141.52281582	    148.25604187	     12.98391685	    408.11762730	      6.03161536	    -23.34813929
      7.03000000	     39.37072971	      1.01074490	      6.36057628	   -187.31310943	    899.23957074	     -7.49722734	     -1.05135772	     41.48661871	     45.00000000	     45.00000000	     27.72195726	   2044.76110355	  -2452.05069205	     18.83205999	   -179.99999979	   1086.37277092	    -55.06656805	     22.06691117	     10.09414361	     13.52176013	    -45.00000000	    -42.51599825	     45.00000000	    -35.95021640	  -1341.16211960	  -1171.75897848	    141.44465828	    148.82397879	     12.96026816	    407.48848775	      6.07345891	    -23.38028362
      7.04000000	     39.33009604	      0.72552928	      5.91820630	   -184.40726131	    900.63908978	     -7.46722086	     -1.74369420	     41.29533820	     45.00000000	     45.00000000	     29.62301183	   2044.61299698	  -2451.75330553	     18.96035165	   -179.99999979	   1086.43318600	    -55.59115028	     22.23395414	     10.21282507	     13.44959813	    -45.00000000	    -42.94656721	     45.00000000	    -34.35338559	  -1341.14743836	  -1171.56728526	    141.37016709	    149.19228867	     12.82875289	    406.60645803	      6.21118126	    -23.41659643
      7.05000000	     39.29241168	      0.59772320	      5.56483343	   -181.37394329	    901.82353889	     -7.41608536	     -2.15782581	     41.13254596	     45.00000000	     45.00000000	     31.24040990	   2044.47548432	  -2451.47533422	     19.06428820	   -179.99999979	   1086.45547249	    -56.19182697	     22.32525135	     10.34721172	     13.38069985	    -45.00000000	    -43.53504092	     45.00000000	    -32.80847654	  -1341.15154808	  -1171.43341445	    141.32620846	    149.70304188	     12.70520009	    405.48726937	      6.39176597	    -23.46896953
      7.06000000	     39.26426428	      0.34533513	      5.01755643	   -178.21704659	    902.77141764	     -7.34100016	     -2.37914079	     40.82811099	     45.00000000	     45.00000000	     32.83816819	   2044.42838989	  -2451.29367783	     19.04341949	   -179.99999979	   1086.32600343	    -56.80815578	     22.15693382	     10.57539554	     13.42414417	    -45.00000000	    -44.17098879	     45.00000000	    -31.18928218	  -1341.13242575	  -1171.27594301	    141.19708635	    150.15170505	     12.62269717	    404.08477958	      6.57189243	    -23.51026424
